<?xml version="1.0"?>
<!DOCTYPE svg PUBLIC '-//W3C//DTD SVG 1.1//EN' 'http://www.w3.org/Graphics/SVG/1.1/DTD/svg11.dtd'>
<svg viewBox="-290 -300 1500 1500" version="1.1" xmlns="http://www.w3.org/2000/svg" xmlns:xlink="http://www.w3.org/1999/xlink">
	<path d="M768.051,127.108H142.044c-28.995,0-52.5,23.505-52.5,52.5s23.505,52.5,52.5,52.5h626.008c28.947,0,52.5,23.552,52.5,52.5v224.743c0,28.947-23.553,52.5-52.5,52.5H179.838l41.689-42.192c20.38-20.625,20.18-53.865-0.445-74.244c-20.624-20.38-53.866-20.181-74.244,0.445L15.155,579.132c-20.38,20.625-20.18,53.865,0.445,74.244L147.08,783.288c10.231,10.11,23.566,15.155,36.897,15.155c13.541-0.001,27.078-5.207,37.347-15.601c20.38-20.625,20.181-53.865-0.445-74.244l-42.25-41.747h589.423c86.846,0,157.5-70.654,157.5-157.5V284.608C925.551,197.762,854.897,127.108,768.051,127.108z"/>
</svg>
