<?xml version="1.0"?>
<!DOCTYPE svg PUBLIC '-//W3C//DTD SVG 1.1//EN' 'http://www.w3.org/Graphics/SVG/1.1/DTD/svg11.dtd'>
<svg viewBox="-300 -300 1600 1600" version="1.1" xmlns="http://www.w3.org/2000/svg" xmlns:xlink="http://www.w3.org/1999/xlink">
	<path d="M733.6,455.2c77.2,104.7,101.1,195.5,86.7,210c-14.5,14.3-105.2-9.5-210-86.7L303,885.7c232.7,102.2,535.1-112.2,589.5-166.5c51.4-51.3,5.4-183.9-103.2-319.9L733.6,455.2L733.6,455.2z M425.9,385.5c-61.1-92.2-79.5-168-66.4-181.2c13-13,88.9,5.3,181.1,66.5l56.9-57c-125.9-93.1-244.3-129.7-292.2-81.7C253.7,183.7,58,458.9,125.6,685.7L425.9,385.5L425.9,385.5z M973.7,26.3c-21.7-21.7-56.9-21.7-78.6,0L26.3,895.1c-21.7,21.7-21.7,56.9,0,78.6c21.7,21.7,56.9,21.7,78.6,0l868.8-868.9C995.4,83.1,995.4,48,973.7,26.3L973.7,26.3z"/>
</svg>