<?xml version="1.0"?>
<!DOCTYPE svg PUBLIC '-//W3C//DTD SVG 1.1//EN' 'http://www.w3.org/Graphics/SVG/1.1/DTD/svg11.dtd'>
<svg viewBox="-24 -24 48 48" version="1.1" xmlns="http://www.w3.org/2000/svg" xmlns:xlink="http://www.w3.org/1999/xlink">
	<path d="M12 0c-1.219 0 -1.797 0.859 -2 1.766C9.269 5.03 6.167 10 0 10c-5.523 0 -10 -4.478 -10 -10S-5.523 -10 0 -10c2.24 0 4.295 0.753 5.96 2H4c-1.104 0 -2 0.896 -2 2s0.896 2 2 2h6c1.104 0 2 -0.896 2 -2V-12c0 -1.104 -0.896 -2 -2 -2s-2 0.896 -2 2v0.518C5.733 -13.068 2.977 -14 0 -14C-7.732 -14 -14 -7.732 -14 0s6.268 14 14 14c9.979 0 14 -9.5 14 -11.875C14 0.672 12.938 0 12 0z"/>
</svg>