<?xml version="1.0"?>
<!DOCTYPE svg PUBLIC '-//W3C//DTD SVG 1.1//EN' 'http://www.w3.org/Graphics/SVG/1.1/DTD/svg11.dtd'>
<svg viewBox="-300 -300 1600 1600" version="1.1" xmlns="http://www.w3.org/2000/svg" xmlns:xlink="http://www.w3.org/1999/xlink">
	<path d="M205.1,250.4c-59.1,58.9-317.3,427.2-94.2,650.3c223,223.1,591.2-35.2,650.4-94.2c59-58.9-17.6-231.4-171.2-385C436.5,267.9,264.2,191.2,205.1,250.4L205.1,250.4z M692.9,755.3c-17.5,17.3-152.4-24.1-282.4-154.2c-129.9-130-171.4-265-153.9-282.4c17.3-17.5,152.4,24.1,282.2,154C668.8,602.7,710.2,737.8,692.9,755.3L692.9,755.3z M738,325l100.2-100.3c20.6-20.6,20.6-53.9,0-74.4c-20.5-20.6-53.9-20.6-74.4,0L663.6,250.5c-20.6,20.6-20.6,53.9,0,74.4C684.1,345.5,717.4,345.5,738,325L738,325z M511.1,210.1c25.4,14.1,57.4,5,71.6-20.4l57.2-101.4c14.1-25.4,5-57.4-20.4-71.6c-25.4-14.2-57.4-5-71.6,20.4l-57.2,101.4C476.6,164,485.7,196,511.1,210.1z M971.7,368.9c-14.1-25.4-46.2-34.6-71.6-20.4l-102.1,55.9c-25.4,14.1-34.6,46.2-20.4,71.6c14.1,25.4,46.2,34.6,71.6,20.4l102.1-55.9C976.7,426.3,985.8,394.3,971.7,368.9z"/>
</svg>